<svg width="607" height="490" viewBox="0 0 607 490" fill="none" xmlns="http://www.w3.org/2000/svg">
<g id="undraw_Typing_re_d4sq 1" clip-path="url(#clip0)">
<path id="Vector" d="M34.4481 0H303.818C312.951 0.00967916 321.707 3.42876 328.165 9.50713C334.623 15.5855 338.256 23.8268 338.266 32.4228V171.125C338.256 179.722 334.623 187.963 328.165 194.041C321.707 200.12 312.951 203.539 303.818 203.548H34.4481C25.315 203.539 16.559 200.12 10.1009 194.041C3.64289 187.963 0.0102629 179.722 0 171.125V32.4228C0.010261 23.8268 3.64289 15.5855 10.1009 9.50713C16.559 3.42876 25.315 0.00967916 34.4481 0V0Z" fill="#C6D5F3"/>
<path id="Vector_2" d="M34.4477 9.33383H303.818C310.322 9.34069 316.558 11.7755 321.156 16.104C325.755 20.4326 328.342 26.3014 328.35 32.4228V171.125C328.342 177.247 325.755 183.116 321.156 187.444C316.558 191.773 310.322 194.208 303.818 194.214H34.4477C27.9439 194.207 21.7086 191.773 17.1097 187.444C12.5109 183.116 9.92404 177.247 9.91675 171.125V32.4228C9.92403 26.3014 12.5109 20.4327 17.1097 16.1041C21.7086 11.7756 27.9439 9.34076 34.4477 9.33383Z" fill="white"/>
<path id="Vector_3" d="M37.0762 253.208C36.2634 253.206 35.459 253.053 34.7091 252.758C33.5899 252.334 32.6326 251.603 31.9624 250.659C31.2923 249.715 30.9406 248.603 30.9533 247.467V199.519L98.8706 197.368L41.3398 251.517C40.7835 252.05 40.1201 252.474 39.3882 252.765C38.6564 253.055 37.8705 253.206 37.0762 253.208V253.208Z" fill="#C6D5F3"/>
<path id="Vector_4" d="M270.081 43.8342H67.5286C59.4189 43.8342 52.8448 50.0219 52.8448 57.6547V57.6548C52.8448 65.2876 59.4189 71.4753 67.5286 71.4753H270.081C278.191 71.4753 284.765 65.2876 284.765 57.6547C284.765 50.0219 278.191 43.8342 270.081 43.8342Z" fill="#6885B0"/>
<path id="Vector_5" d="M270.41 87.9536H67.8567C59.7471 87.9536 53.1729 94.1412 53.1729 101.774V101.774C53.1729 109.407 59.7471 115.595 67.8567 115.595H270.41C278.519 115.595 285.093 109.407 285.093 101.774C285.093 94.1412 278.519 87.9536 270.41 87.9536Z" fill="#7DABD6"/>
<path id="Vector_6" d="M270.738 132.073H68.1849C60.0753 132.073 53.5011 138.261 53.5011 145.893V145.894C53.5011 153.526 60.0753 159.714 68.1849 159.714H270.738C278.847 159.714 285.422 153.526 285.422 145.893C285.422 138.261 278.847 132.073 270.738 132.073Z" fill="#AFC5E8"/>
<path id="Vector_7" d="M459.804 70.7406H190.434C181.301 70.7502 172.545 74.1693 166.087 80.2477C159.629 86.3261 155.996 94.5673 155.986 103.163V241.866C155.996 250.462 159.629 258.703 166.087 264.782C172.545 270.86 181.301 274.279 190.434 274.289H459.804C468.937 274.279 477.693 270.86 484.151 264.782C490.609 258.703 494.242 250.462 494.252 241.866V103.163C494.242 94.5673 490.609 86.3261 484.151 80.2477C477.693 74.1693 468.937 70.7502 459.804 70.7406V70.7406Z" fill="#C6D5F3"/>
<path id="box-message" d="M459.804 80.0744H190.434C183.93 80.0813 177.695 82.516 173.096 86.8446C168.497 91.1731 165.91 97.0419 165.903 103.163V241.866C165.91 247.987 168.497 253.856 173.096 258.185C177.695 262.513 183.93 264.948 190.434 264.955H459.804C466.308 264.948 472.544 262.513 477.142 258.185C481.741 253.856 484.328 247.987 484.335 241.866V103.163C484.328 97.042 481.741 91.1732 477.142 86.8447C472.544 82.5162 466.308 80.0813 459.804 80.0744Z" fill="white"/>
<path id="Vector_8" d="M439.312 322.257L381.781 268.109L449.699 270.259V318.208C449.711 319.343 449.36 320.456 448.69 321.399C448.019 322.343 447.062 323.075 445.943 323.498C445.193 323.794 444.389 323.947 443.576 323.949C442.781 323.947 441.996 323.796 441.264 323.505C440.532 323.215 439.869 322.791 439.312 322.257V322.257Z" fill="#C6D5F3"/>
<path id="circle-1" d="M265.707 190.031C275.986 190.031 284.318 182.189 284.318 172.515C284.318 162.84 275.986 154.998 265.707 154.998C255.429 154.998 247.096 162.84 247.096 172.515C247.096 182.189 255.429 190.031 265.707 190.031Z" fill="#6885B0"/>
<path id="circle-2" d="M325.119 190.031C335.398 190.031 343.73 182.189 343.73 172.515C343.73 162.84 335.398 154.998 325.119 154.998C314.841 154.998 306.508 162.84 306.508 172.515C306.508 182.189 314.841 190.031 325.119 190.031Z" fill="#6885B0"/>
<path id="circle-3" d="M384.531 190.031C394.809 190.031 403.142 182.189 403.142 172.515C403.142 162.84 394.809 154.998 384.531 154.998C374.252 154.998 365.92 162.84 365.92 172.515C365.92 182.189 374.252 190.031 384.531 190.031Z" fill="#6885B0"/>
<g id="man">
<g id="Arm">
<path id="Vector_9" d="M466.395 341.376C465.123 341.375 463.9 340.918 462.972 340.099C462.044 339.28 461.482 338.16 461.399 336.965L460.655 326.271C460.568 325.021 461.012 323.791 461.889 322.85C462.765 321.909 464.004 321.334 465.331 321.252L554.351 315.765C555.755 315.678 557.163 315.851 558.496 316.276C559.828 316.701 561.059 317.369 562.117 318.242C563.175 319.115 564.04 320.175 564.662 321.363C565.285 322.55 565.652 323.842 565.744 325.163C565.836 326.485 565.651 327.81 565.198 329.064C564.745 330.318 564.035 331.475 563.107 332.471C562.178 333.466 561.051 334.279 559.789 334.864C558.526 335.449 557.154 335.794 555.75 335.879L466.731 341.366C466.618 341.373 466.507 341.376 466.395 341.376Z" fill="#6C63FF"/>
<path id="Vector_10" d="M483.949 342.755C482.652 342.753 481.406 342.279 480.473 341.432C479.539 340.585 478.99 339.431 478.94 338.211L478.305 322.238C478.281 321.619 478.386 321.001 478.615 320.42C478.844 319.838 479.193 319.306 479.641 318.851C480.089 318.397 480.627 318.03 481.226 317.772C481.824 317.513 482.471 317.369 483.129 317.345L556.333 314.77C557.662 314.724 558.956 315.176 559.931 316.027C560.906 316.879 561.482 318.06 561.531 319.311L562.166 335.284C562.19 335.904 562.085 336.521 561.856 337.102C561.627 337.684 561.278 338.216 560.83 338.671C560.382 339.125 559.844 339.492 559.245 339.75C558.646 340.009 558 340.154 557.341 340.177L484.138 342.752C484.075 342.754 484.011 342.755 483.949 342.755Z" fill="#2F2E41"/>
</g>
<path id="Vector_11" d="M577.313 490.175H565.926C564.597 490.173 563.322 489.676 562.382 488.791C561.442 487.906 560.913 486.706 560.911 485.455V396.131C560.913 394.88 561.442 393.68 562.382 392.795C563.322 391.91 564.597 391.413 565.926 391.411H577.313C578.642 391.413 579.917 391.91 580.857 392.795C581.797 393.68 582.326 394.88 582.328 396.131V485.455C582.326 486.706 581.797 487.906 580.857 488.791C579.917 489.676 578.642 490.173 577.313 490.175V490.175Z" fill="#2F2E41"/>
<path id="Vector_12" d="M550.112 490.175H538.726C537.396 490.173 536.121 489.676 535.181 488.791C534.241 487.906 533.712 486.706 533.711 485.455V396.131C533.712 394.88 534.241 393.68 535.181 392.795C536.121 391.91 537.396 391.413 538.726 391.411H550.112C551.442 391.413 552.717 391.91 553.657 392.795C554.597 393.68 555.126 394.88 555.127 396.131V485.455C555.126 486.706 554.597 487.906 553.657 488.791C552.717 489.676 551.442 490.173 550.112 490.175Z" fill="#2F2E41"/>
<path id="Vector_13" d="M560.019 298.192C581.749 298.192 599.364 281.612 599.364 261.159C599.364 240.707 581.749 224.127 560.019 224.127C538.289 224.127 520.673 240.707 520.673 261.159C520.673 281.612 538.289 298.192 560.019 298.192Z" fill="#6C63FF"/>
<path id="Vector_14" d="M538.721 273.804C537.455 273.412 536.294 272.77 535.313 271.921C534.664 271.314 534.164 270.582 533.847 269.774C533.53 268.967 533.404 268.103 533.479 267.245C533.52 266.634 533.711 266.04 534.037 265.509C534.362 264.979 534.814 264.527 535.356 264.188C536.763 263.338 538.645 263.336 540.561 264.13L540.488 249.673L542.031 249.666L542.117 266.662L540.928 265.958C539.549 265.143 537.58 264.57 536.189 265.41C535.845 265.632 535.561 265.926 535.357 266.268C535.153 266.61 535.037 266.992 535.015 267.384C534.963 268.023 535.058 268.666 535.294 269.267C535.529 269.869 535.899 270.416 536.379 270.87C538.083 272.402 540.569 272.881 543.403 273.309L543.159 274.743C541.653 274.555 540.168 274.241 538.721 273.804V273.804Z" fill="#2F2E41"/>
<path id="Vector_15" d="M524.584 248.945L524.382 250.384L532.62 251.408L532.822 249.969L524.584 248.945Z" fill="#2F2E41"/>
<path id="Vector_16" d="M550.588 252.174L550.386 253.614L558.624 254.638L558.826 253.199L550.588 252.174Z" fill="#2F2E41"/>
<path id="Vector_17" d="M585.675 420.097H526.525C525.06 420.095 523.637 419.632 522.484 418.783C521.33 417.933 520.512 416.744 520.158 415.406C519.982 414.672 519.953 413.914 520.072 413.169C520.072 413.169 531.626 352.101 537.341 322.773C538.175 318.498 540.574 314.633 544.122 311.851C547.67 309.069 552.142 307.546 556.76 307.547H556.76C568.077 307.547 578.93 311.778 586.932 319.31C594.935 326.842 599.43 337.057 599.43 347.709V407.15C599.43 408.85 599.074 410.534 598.383 412.105C597.692 413.675 596.679 415.103 595.401 416.305C594.124 417.507 592.608 418.461 590.939 419.111C589.27 419.762 587.481 420.097 585.675 420.097V420.097Z" fill="#2F2E41"/>
<path id="Vector_18" d="M574.269 412.028C573.836 412.843 573.162 413.523 572.329 413.986C571.495 414.449 570.537 414.676 569.569 414.639L558.193 414.187C557.535 414.161 556.889 414.013 556.291 413.752C555.694 413.491 555.157 413.122 554.712 412.666C554.266 412.209 553.92 411.675 553.694 411.093C553.468 410.511 553.366 409.892 553.394 409.273L557.148 325.382C557.207 324.06 557.543 322.761 558.135 321.561C558.727 320.361 559.565 319.282 560.6 318.386C561.636 317.491 562.848 316.796 564.169 316.341C565.489 315.886 566.892 315.681 568.297 315.737C569.702 315.793 571.082 316.108 572.357 316.666C573.632 317.223 574.778 318.012 575.73 318.986C576.682 319.96 577.42 321.102 577.903 322.345C578.386 323.588 578.604 324.908 578.545 326.23L574.791 410.121C574.762 410.784 574.584 411.434 574.269 412.028V412.028Z" fill="#6C63FF"/>
<path id="Vector_19" d="M580.092 389.784C579.659 390.599 578.986 391.279 578.152 391.743C577.318 392.206 576.36 392.432 575.393 392.395L555.96 391.624C554.632 391.57 553.381 391.022 552.481 390.101C551.582 389.18 551.107 387.96 551.162 386.71L554.245 317.824C554.272 317.204 554.429 316.596 554.707 316.034C554.984 315.472 555.376 314.967 555.861 314.547C556.346 314.128 556.914 313.802 557.532 313.589C558.151 313.376 558.808 313.28 559.466 313.307L578.898 314.077C579.556 314.103 580.202 314.251 580.799 314.512C581.396 314.773 581.933 315.142 582.379 315.598C582.824 316.055 583.17 316.589 583.396 317.171C583.622 317.754 583.724 318.372 583.697 318.991L580.614 387.878C580.585 388.541 580.407 389.191 580.092 389.784V389.784Z" fill="#2F2E41"/>
<path id="Vector_20" d="M557.832 237.105C549.345 240.255 536.521 243.603 530.926 234.251C529.834 232.34 529.187 230.231 529.028 228.066C528.87 225.901 529.203 223.729 530.005 221.694C531.695 217.282 535.29 213.647 539.386 211.079C547.06 206.267 556.77 204.957 565.707 206.817C570.201 207.738 574.465 209.463 578.267 211.898C582.59 214.687 585.634 218.452 588.693 222.393C591.821 226.421 595.363 230.485 600.503 232.25C604.706 233.693 609.976 232.956 612.949 229.598C613.643 228.814 614.176 227.915 614.519 226.947C614.965 225.713 612.892 225.183 612.449 226.41C610.886 230.731 605.135 231.699 601.074 230.301C595.713 228.454 592.327 223.656 589.112 219.514C586.039 215.555 582.641 212.069 578.201 209.442C574.211 207.099 569.792 205.475 565.17 204.654C555.866 202.988 545.845 204.464 537.96 209.552C533.615 212.23 530.21 216.06 528.176 220.558C526.37 224.814 526.416 229.568 528.304 233.793C529.252 235.898 530.732 237.753 532.616 239.198C534.499 240.642 536.728 241.632 539.111 242.081C544.31 243.073 549.712 241.932 554.647 240.36C555.911 239.957 557.161 239.515 558.403 239.054C559.674 238.582 559.12 236.627 557.832 237.105V237.105Z" fill="#2F2E41"/>
</g>
</g>
<defs>
<clipPath id="clip0">
<rect width="607" height="490" fill="white"/>
</clipPath>
</defs>
</svg>
